# Blender 3.6.1
# www.blender.org
mtllib roda.mtl
o roda
v -0.119892 0.000000 -0.358329
v 0.119892 -0.000000 -0.222428
v -0.119892 -0.155473 -0.322844
v 0.119892 -0.096508 -0.200400
v -0.119892 -0.280153 -0.223415
v 0.119892 -0.173901 -0.138681
v -0.119892 -0.349345 -0.079736
v 0.119892 -0.216851 -0.049495
v -0.119892 -0.349345 0.079736
v 0.119892 -0.216851 0.049495
v -0.119892 -0.280153 0.223415
v 0.119892 -0.173901 0.138681
v -0.119892 -0.155473 0.322844
v 0.119892 -0.096508 0.200400
v -0.119892 0.000000 0.358329
v 0.119892 -0.000000 0.222428
v -0.119892 0.155473 0.322844
v 0.119892 0.096508 0.200400
v -0.119892 0.280153 0.223415
v 0.119892 0.173901 0.138681
v -0.119892 0.349345 0.079736
v 0.119892 0.216851 0.049495
v -0.119892 0.349345 -0.079736
v 0.119892 0.216851 -0.049495
v -0.119892 0.280153 -0.223415
v 0.119892 0.173901 -0.138681
v -0.119892 0.155473 -0.322844
v 0.119892 0.096508 -0.200400
v 0.119892 -0.155473 -0.322844
v 0.119892 -0.000000 -0.358329
v 0.119892 -0.280153 -0.223415
v 0.119892 -0.349345 -0.079736
v 0.119892 -0.349345 0.079736
v 0.119892 -0.280153 0.223415
v 0.119892 -0.155473 0.322844
v 0.119892 -0.000000 0.358329
v 0.119892 0.155473 0.322844
v 0.119892 0.280153 0.223415
v 0.119892 0.349345 0.079736
v 0.119892 0.349345 -0.079736
v 0.119892 0.280153 -0.223415
v 0.119892 0.155473 -0.322844
v 0.119892 -0.096508 -0.200400
v 0.119892 -0.000000 -0.222428
v 0.119892 -0.173901 -0.138681
v 0.119892 -0.216851 -0.049495
v 0.119892 -0.216851 0.049495
v 0.119892 -0.173901 0.138681
v 0.119892 -0.096508 0.200400
v 0.119892 -0.000000 0.222428
v 0.119892 0.096508 0.200400
v 0.119892 0.173901 0.138681
v 0.119892 0.216851 0.049495
v 0.119892 0.216851 -0.049495
v 0.119892 0.173901 -0.138681
v 0.119892 0.096508 -0.200400
v 0.068201 -0.022577 -0.046882
v 0.068201 0.000000 -0.052036
v 0.068201 -0.040683 -0.032444
v 0.068201 -0.050731 -0.011579
v 0.068201 -0.050731 0.011579
v 0.068201 -0.040683 0.032444
v 0.068201 -0.022577 0.046882
v 0.068201 -0.000000 0.052036
v 0.068201 0.022577 0.046882
v 0.068201 0.040683 0.032444
v 0.068201 0.050731 0.011579
v 0.068201 0.050731 -0.011579
v 0.068201 0.040683 -0.032444
v 0.068201 0.022577 -0.046882
v 0.068201 -0.096508 -0.200400
v 0.068201 -0.000000 -0.222428
v 0.068201 -0.173901 -0.138681
v 0.068201 -0.216851 -0.049495
v 0.068201 -0.216851 0.049495
v 0.068201 -0.173901 0.138681
v 0.068201 -0.096508 0.200400
v 0.068201 -0.000000 0.222428
v 0.068201 0.096508 0.200400
v 0.068201 0.173901 0.138681
v 0.068201 0.216851 0.049495
v 0.068201 0.216851 -0.049495
v 0.068201 0.173901 -0.138681
v 0.068201 0.096508 -0.200400
v 0.098886 -0.022577 -0.046882
v 0.098886 0.000000 -0.052036
v 0.098886 -0.040683 -0.032444
v 0.098886 -0.050731 -0.011579
v 0.098886 -0.050731 0.011579
v 0.098886 -0.040683 0.032444
v 0.098886 -0.022577 0.046882
v 0.098886 -0.000000 0.052036
v 0.098886 0.022577 0.046882
v 0.098886 0.040683 0.032444
v 0.098886 0.050731 0.011579
v 0.098886 0.050731 -0.011579
v 0.098886 0.040683 -0.032444
v 0.098886 0.022577 -0.046882
v 0.030780 -0.096508 -0.200400
v 0.030780 -0.000000 -0.222428
v 0.030780 -0.216851 -0.049495
v 0.030780 -0.173901 -0.138681
v 0.030780 -0.173901 0.138681
v 0.030780 -0.216851 0.049495
v 0.030780 -0.000000 0.222428
v 0.030780 -0.096508 0.200400
v 0.030780 0.173901 0.138681
v 0.030780 0.096508 0.200400
v 0.030780 0.216851 -0.049495
v 0.030780 0.216851 0.049495
v 0.030780 0.096508 -0.200400
v 0.030780 0.173901 -0.138681
v 0.030780 -0.022577 -0.046882
v 0.030780 0.000000 -0.052036
v 0.030780 -0.050731 -0.011579
v 0.030780 -0.040683 -0.032444
v 0.030780 -0.040683 0.032444
v 0.030780 -0.050731 0.011579
v 0.030780 -0.000000 0.052036
v 0.030780 -0.022577 0.046882
v 0.030780 0.040683 0.032444
v 0.030780 0.022577 0.046882
v 0.030780 0.050731 -0.011579
v 0.030780 0.050731 0.011579
v 0.030780 0.022577 -0.046882
v 0.030780 0.040683 -0.032444
vn -0.0000 -0.2225 -0.9749
vn -0.0000 -0.6235 -0.7818
vn -0.0000 -0.9010 -0.4339
vn -0.0000 -1.0000 -0.0000
vn -0.0000 -0.9010 0.4339
vn -0.0000 -0.6235 0.7818
vn -0.0000 -0.2225 0.9749
vn -0.0000 0.2225 0.9749
vn -0.0000 0.6235 0.7818
vn -0.0000 0.9010 0.4339
vn -0.0000 1.0000 -0.0000
vn -0.0000 0.9010 -0.4339
vn 1.0000 -0.0000 -0.0000
vn -0.0000 0.6235 -0.7818
vn -0.0000 0.2225 -0.9749
vn -1.0000 -0.0000 -0.0000
vt 1.000000 1.000000
vt 0.928571 0.500000
vt 1.000000 0.500000
vt 0.928571 1.000000
vt 0.857143 0.500000
vt 0.857143 1.000000
vt 0.785714 0.500000
vt 0.785714 1.000000
vt 0.714286 0.500000
vt 0.714286 1.000000
vt 0.642857 0.500000
vt 0.642857 1.000000
vt 0.571428 0.500000
vt 0.571428 1.000000
vt 0.500000 0.500000
vt 0.500000 1.000000
vt 0.428571 0.500000
vt 0.428571 1.000000
vt 0.357143 0.500000
vt 0.357143 1.000000
vt 0.285714 0.500000
vt 0.285714 1.000000
vt 0.214286 0.500000
vt 0.214286 1.000000
vt 0.142857 0.500000
vt 0.185362 0.115777
vt 0.250000 0.101024
vt 0.142857 1.000000
vt 0.071428 0.500000
vt 0.071428 1.000000
vt -0.000000 0.500000
vt 0.983983 0.303405
vt 0.750000 0.010000
vt 0.516017 0.303405
vt 0.314638 0.384223
vt 0.250000 0.490000
vt 0.250000 0.398976
vt 0.437640 0.399638
vt 0.354132 0.466233
vt 0.395241 0.283150
vt 0.366474 0.342885
vt 0.483983 0.196595
vt 0.483983 0.303405
vt 0.366474 0.157115
vt 0.395241 0.216850
vt 0.354132 0.033767
vt 0.437640 0.100362
vt 0.314638 0.115777
vt 0.250000 0.010000
vt 0.062360 0.100362
vt 0.145868 0.033767
vt 0.104759 0.216850
vt 0.133526 0.157115
vt 0.016017 0.303405
vt 0.016017 0.196595
vt 0.133526 0.342885
vt 0.104759 0.283150
vt 0.145868 0.466233
vt 0.062360 0.399638
vt 0.185362 0.384223
vt 0.216022 0.242245
vt 0.222751 0.228270
vt 0.250000 0.215148
vt 0.265122 0.218599
vt 0.265122 0.281401
vt 0.277249 0.228270
vt 0.283978 0.242245
vt 0.283978 0.257755
vt 0.234878 0.218599
vt 0.222751 0.271730
vt 0.216022 0.257755
vt 0.234878 0.281401
vt 0.277249 0.271730
vt 0.250000 0.284852
vt -0.000000 1.000000
vt 0.645868 0.466233
vt 0.750000 0.490000
vt 0.854132 0.466233
vt 0.937640 0.399638
vt 0.983983 0.196595
vt 0.937640 0.100362
vt 0.854132 0.033767
vt 0.645868 0.033767
vt 0.562360 0.100362
vt 0.516017 0.196595
vt 0.562360 0.399638
s 0
usemtl pneu.002
f 30/1/1 3/2/1 1/3/1
f 29/4/2 5/5/2 3/2/2
f 31/6/3 7/7/3 5/5/3
f 32/8/4 9/9/4 7/7/4
f 33/10/5 11/11/5 9/9/5
f 34/12/6 13/13/6 11/11/6
f 35/14/7 15/15/7 13/13/7
f 36/16/8 17/17/8 15/15/8
f 37/18/9 19/19/9 17/17/9
f 38/20/10 21/21/10 19/19/10
f 39/22/11 23/23/11 21/21/11
f 40/24/12 25/25/12 23/23/12
f 18/26/13 50/27/13 51/26/13
f 41/28/14 27/29/14 25/25/14
f 42/30/15 1/31/15 27/29/15
f 7/32/16 15/33/16 23/34/16
f 4/35/13 30/36/13 2/37/13
f 4/35/13 31/38/13 29/39/13
f 8/40/13 31/38/13 6/41/13
f 8/40/13 33/42/13 32/43/13
f 12/44/13 33/42/13 10/45/13
f 12/44/13 35/46/13 34/47/13
f 14/48/13 36/49/13 35/46/13
f 18/26/13 36/49/13 16/27/13
f 18/26/13 38/50/13 37/51/13
f 22/52/13 38/50/13 20/53/13
f 22/52/13 40/54/13 39/55/13
f 26/56/13 40/54/13 24/57/13
f 26/56/13 42/58/13 41/59/13
f 28/60/13 30/36/13 42/58/13
f 51/26/2 80/53/2 52/53/2
f 4/35/13 44/37/13 43/35/13
f 20/53/13 51/26/13 52/53/13
f 6/41/13 43/35/13 45/41/13
f 22/52/13 52/53/13 53/52/13
f 8/40/13 45/41/13 46/40/13
f 24/57/13 53/52/13 54/57/13
f 10/45/13 46/40/13 47/45/13
f 26/56/13 54/57/13 55/56/13
f 12/44/13 47/45/13 48/44/13
f 28/60/13 55/56/13 56/60/13
f 14/48/13 48/44/13 49/48/13
f 2/37/13 56/60/13 44/37/13
f 16/27/13 49/48/13 50/27/13
f 43/35/9 73/41/9 45/41/9
f 52/53/3 81/52/3 53/52/3
f 45/41/10 74/40/10 46/40/10
f 53/52/4 82/57/4 54/57/4
f 46/40/11 75/45/11 47/45/11
f 54/57/5 83/56/5 55/56/5
f 47/45/12 76/44/12 48/44/12
f 55/56/6 84/60/6 56/60/6
f 48/44/14 77/48/14 49/48/14
f 56/60/7 72/37/7 44/37/7
f 49/48/15 78/27/15 50/27/15
f 50/27/1 79/26/1 51/26/1
f 44/37/8 71/35/8 43/35/8
f 76/44/2 117/66/2 62/66/2
f 61/67/8 104/45/8 75/45/8
f 60/68/15 101/40/15 115/68/15
f 63/64/10 106/48/10 77/48/10
f 78/27/4 119/63/4 64/63/4
f 65/69/12 108/26/12 79/26/12
f 80/53/6 121/62/6 66/62/6
f 81/52/15 124/61/15 110/52/15
f 82/57/8 123/71/8 68/71/8
f 69/70/2 112/56/2 83/56/2
f 84/60/10 125/72/10 70/72/10
f 58/74/4 100/37/4 72/37/4
f 71/35/12 113/65/12 57/65/12
f 59/73/6 102/41/6 73/41/6
f 30/1/1 29/4/1 3/2/1
f 29/4/2 31/6/2 5/5/2
f 31/6/3 32/8/3 7/7/3
f 32/8/4 33/10/4 9/9/4
f 33/10/5 34/12/5 11/11/5
f 34/12/6 35/14/6 13/13/6
f 35/14/7 36/16/7 15/15/7
f 36/16/8 37/18/8 17/17/8
f 37/18/9 38/20/9 19/19/9
f 38/20/10 39/22/10 21/21/10
f 39/22/11 40/24/11 23/23/11
f 40/24/12 41/28/12 25/25/12
f 18/26/13 16/27/13 50/27/13
f 41/28/14 42/30/14 27/29/14
f 42/30/15 30/75/15 1/31/15
f 27/76/16 1/77/16 3/78/16
f 3/78/16 5/79/16 7/32/16
f 7/32/16 9/80/16 11/81/16
f 11/81/16 13/82/16 15/33/16
f 15/33/16 17/83/16 19/84/16
f 19/84/16 21/85/16 23/34/16
f 23/34/16 25/86/16 27/76/16
f 27/76/16 3/78/16 7/32/16
f 7/32/16 11/81/16 15/33/16
f 15/33/16 19/84/16 23/34/16
f 23/34/16 27/76/16 7/32/16
f 4/35/13 29/39/13 30/36/13
f 4/35/13 6/41/13 31/38/13
f 8/40/13 32/43/13 31/38/13
f 8/40/13 10/45/13 33/42/13
f 12/44/13 34/47/13 33/42/13
f 12/44/13 14/48/13 35/46/13
f 14/48/13 16/27/13 36/49/13
f 18/26/13 37/51/13 36/49/13
f 18/26/13 20/53/13 38/50/13
f 22/52/13 39/55/13 38/50/13
f 22/52/13 24/57/13 40/54/13
f 26/56/13 41/59/13 40/54/13
f 26/56/13 28/60/13 42/58/13
f 28/60/13 2/37/13 30/36/13
f 51/26/2 79/26/2 80/53/2
f 4/35/13 2/37/13 44/37/13
f 20/53/13 18/26/13 51/26/13
f 6/41/13 4/35/13 43/35/13
f 22/52/13 20/53/13 52/53/13
f 8/40/13 6/41/13 45/41/13
f 24/57/13 22/52/13 53/52/13
f 10/45/13 8/40/13 46/40/13
f 26/56/13 24/57/13 54/57/13
f 12/44/13 10/45/13 47/45/13
f 28/60/13 26/56/13 55/56/13
f 14/48/13 12/44/13 48/44/13
f 2/37/13 28/60/13 56/60/13
f 16/27/13 14/48/13 49/48/13
f 43/35/9 71/35/9 73/41/9
f 52/53/3 80/53/3 81/52/3
f 45/41/10 73/41/10 74/40/10
f 53/52/4 81/52/4 82/57/4
f 46/40/11 74/40/11 75/45/11
f 54/57/5 82/57/5 83/56/5
f 47/45/12 75/45/12 76/44/12
f 55/56/6 83/56/6 84/60/6
f 48/44/14 76/44/14 77/48/14
f 56/60/7 84/60/7 72/37/7
f 49/48/15 77/48/15 78/27/15
f 50/27/1 78/27/1 79/26/1
f 44/37/8 72/37/8 71/35/8
f 76/44/2 103/44/2 117/66/2
f 61/67/8 118/67/8 104/45/8
f 60/68/15 74/40/15 101/40/15
f 63/64/10 120/64/10 106/48/10
f 78/27/4 105/27/4 119/63/4
f 65/69/12 122/69/12 108/26/12
f 80/53/6 107/53/6 121/62/6
f 81/52/15 67/61/15 124/61/15
f 82/57/8 109/57/8 123/71/8
f 69/70/2 126/70/2 112/56/2
f 84/60/10 111/60/10 125/72/10
f 58/74/4 114/74/4 100/37/4
f 71/35/12 99/35/12 113/65/12
f 59/73/6 116/73/6 102/41/6
usemtl calota
f 67/61/10 94/62/10 95/61/10
f 64/63/7 120/64/7 63/64/7
f 57/65/13 73/41/13 71/35/13
f 61/67/13 74/40/13 60/68/13
f 77/48/15 105/27/15 78/27/15
f 62/66/13 77/48/13 76/44/13
f 65/69/13 78/27/13 64/63/13
f 61/67/5 117/66/5 118/67/5
f 66/62/13 81/52/13 80/53/13
f 69/70/13 82/57/13 68/71/13
f 75/45/12 103/44/12 76/44/12
f 70/72/13 72/37/13 84/60/13
f 97/70/13 93/69/13 89/67/13
f 59/73/3 88/68/3 60/68/3
f 67/61/11 96/71/11 68/71/11
f 60/68/4 89/67/4 61/67/4
f 68/71/12 97/70/12 69/70/12
f 62/66/5 89/67/5 90/66/5
f 70/72/14 97/70/14 98/72/14
f 63/64/6 90/66/6 91/64/6
f 58/74/15 98/72/15 86/74/15
f 63/64/7 92/63/7 64/63/7
f 64/63/8 93/69/8 65/69/8
f 58/74/1 85/65/1 57/65/1
f 65/69/9 94/62/9 66/62/9
f 57/65/2 87/73/2 59/73/2
f 79/26/2 107/53/2 80/53/2
f 66/62/9 122/69/9 65/69/9
f 81/52/4 109/57/4 82/57/4
f 68/71/11 124/61/11 67/61/11
f 83/56/6 111/60/6 84/60/6
f 70/72/14 126/70/14 69/70/14
f 72/37/8 99/35/8 71/35/8
f 57/65/1 114/74/1 58/74/1
f 73/41/10 101/40/10 74/40/10
f 60/68/3 116/73/3 59/73/3
f 67/61/10 66/62/10 94/62/10
f 64/63/7 119/63/7 120/64/7
f 57/65/13 59/73/13 73/41/13
f 61/67/13 75/45/13 74/40/13
f 77/48/15 106/48/15 105/27/15
f 62/66/13 63/64/13 77/48/13
f 65/69/13 79/26/13 78/27/13
f 61/67/5 62/66/5 117/66/5
f 66/62/13 67/61/13 81/52/13
f 69/70/13 83/56/13 82/57/13
f 75/45/12 104/45/12 103/44/12
f 70/72/13 58/74/13 72/37/13
f 87/73/13 85/65/13 86/74/13
f 86/74/13 98/72/13 97/70/13
f 97/70/13 96/71/13 95/61/13
f 95/61/13 94/62/13 93/69/13
f 93/69/13 92/63/13 91/64/13
f 91/64/13 90/66/13 89/67/13
f 89/67/13 88/68/13 87/73/13
f 87/73/13 86/74/13 97/70/13
f 97/70/13 95/61/13 93/69/13
f 93/69/13 91/64/13 89/67/13
f 89/67/13 87/73/13 97/70/13
f 59/73/3 87/73/3 88/68/3
f 67/61/11 95/61/11 96/71/11
f 60/68/4 88/68/4 89/67/4
f 68/71/12 96/71/12 97/70/12
f 62/66/5 61/67/5 89/67/5
f 70/72/14 69/70/14 97/70/14
f 63/64/6 62/66/6 90/66/6
f 58/74/15 70/72/15 98/72/15
f 63/64/7 91/64/7 92/63/7
f 64/63/8 92/63/8 93/69/8
f 58/74/1 86/74/1 85/65/1
f 65/69/9 93/69/9 94/62/9
f 57/65/2 85/65/2 87/73/2
f 79/26/2 108/26/2 107/53/2
f 66/62/9 121/62/9 122/69/9
f 81/52/4 110/52/4 109/57/4
f 68/71/11 123/71/11 124/61/11
f 83/56/6 112/56/6 111/60/6
f 70/72/14 125/72/14 126/70/14
f 72/37/8 100/37/8 99/35/8
f 57/65/1 113/65/1 114/74/1
f 73/41/10 102/41/10 101/40/10
f 60/68/3 115/68/3 116/73/3
usemtl calota2
f 113/65/13 100/37/13 114/74/13
f 116/73/13 101/40/13 102/41/13
f 117/66/13 104/45/13 118/67/13
f 120/64/13 105/27/13 106/48/13
f 122/69/13 107/53/13 108/26/13
f 123/71/13 110/52/13 124/61/13
f 126/70/13 111/60/13 112/56/13
f 113/65/13 99/35/13 100/37/13
f 116/73/13 115/68/13 101/40/13
f 117/66/13 103/44/13 104/45/13
f 120/64/13 119/63/13 105/27/13
f 122/69/13 121/62/13 107/53/13
f 123/71/13 109/57/13 110/52/13
f 126/70/13 125/72/13 111/60/13
